# xmcd
#
# Track frame offsets:
#	150
#	15280
#	33462
#	49662
#	72575
#	89812
#	105052
#	120267
#	136895
#	158617
#	172712
#	188305
#
# Disc length: 2788 seconds
#
# Revision: 1
# Processed by: cddbd v1.5.2PL0 Copyright (c) Steve Scherf et al.
# Submitted via: audiograbber 1.83.01
#
DISCID=810ae20c
DTITLE=Bob Brolly - Red Alert
DYEAR=1900
DGENRE=
TTITLE0=Don't Kiss Me Just For Fun
TTITLE1=Back Home To Ireland
TTITLE2=Bad Woman
TTITLE3=Rare Old Times
TTITLE4=One Session Hero
TTITLE5=More And More
TTITLE6=Daddy Played The Squeeze Box
TTITLE7=Picture Of Old Donegal
TTITLE8=Wind Beneath My Wings
TTITLE9=Red Alert
TTITLE10=Matter Of Time
TTITLE11=An American Trilogy
EXTD=
EXTT0=
EXTT1=
EXTT2=
EXTT3=
EXTT4=
EXTT5=
EXTT6=
EXTT7=
EXTT8=
EXTT9=
EXTT10=
EXTT11=
PLAYORDER=
